<svg width="34" height="34" viewBox="0 0 34 34" fill="none" xmlns="http://www.w3.org/2000/svg">
<path d="M34 17C34 26.3888 26.3888 34 17 34C7.61116 34 0 26.3888 0 17C0 7.61116 7.61116 0 17 0C26.3888 0 34 7.61116 34 17Z" fill="#1C1B22"/>
<path d="M19.984 11.21C20.4 12.058 20.608 13.002 20.608 14.042C20.608 15.082 20.4 16.026 19.984 16.874C19.568 17.706 19.032 18.37 18.376 18.866C17.048 19.89 15.672 20.402 14.248 20.402H11.248V23.114C11.248 23.482 11.232 23.762 11.2 23.954C11.184 24.13 11.112 24.338 10.984 24.578C10.76 25.01 10.136 25.226 9.112 25.226C7.992 25.226 7.336 24.93 7.144 24.338C7.048 24.066 7 23.65 7 23.09V9.77C7 9.402 7.008 9.13 7.024 8.954C7.056 8.762 7.136 8.546 7.264 8.306C7.488 7.874 8.112 7.658 9.136 7.658H14.272C15.68 7.658 17.048 8.17 18.376 9.194C19.032 9.69 19.568 10.362 19.984 11.21ZM14.272 16.154C14.752 16.154 15.224 15.978 15.688 15.626C16.152 15.274 16.384 14.746 16.384 14.042C16.384 13.338 16.152 12.81 15.688 12.458C15.224 12.09 14.744 11.906 14.248 11.906H11.248V16.154H14.272Z" fill="#89A1F0"/>
<path d="M27.54 19.96C27.54 21.52 27.09 22.77 26.19 23.71C25.29 24.65 24.2 25.27 22.92 25.57V27.49C22.92 28.19 22.85 28.68 22.71 28.96C22.59 29.24 22.4 29.43 22.14 29.53C21.9 29.63 21.57 29.68 21.15 29.68C20.73 29.68 20.39 29.63 20.13 29.53C19.89 29.43 19.72 29.25 19.62 28.99C19.48 28.65 19.41 28.14 19.41 27.46V25.6C18.59 25.42 17.85 25.12 17.19 24.7C16.53 24.28 16.07 23.91 15.81 23.59L15.42 23.08C15 22.54 14.79 22.07 14.79 21.67C14.79 21.27 15.13 20.74 15.81 20.08C16.21 19.7 16.63 19.51 17.07 19.51C17.53 19.51 18.16 19.91 18.96 20.71C19.58 21.47 20.28 21.85 21.06 21.85C22.54 21.85 23.28 21.24 23.28 20.02C23.28 19.58 23 19.24 22.44 19C21.88 18.76 21.2 18.55 20.4 18.37C19.6 18.17 18.8 17.91 18 17.59C17.2 17.27 16.52 16.72 15.96 15.94C15.4 15.16 15.12 14.17 15.12 12.97C15.12 11.77 15.5 10.69 16.26 9.73C17.02 8.77 18.07 8.15 19.41 7.87V6.19C19.41 5.51 19.47 5.02 19.59 4.72C19.79 4.24 20.32 4 21.18 4C21.72 4 22.12 4.12 22.38 4.36C22.66 4.58 22.82 4.82 22.86 5.08C22.9 5.34 22.92 5.72 22.92 6.22V7.9C23.48 8.02 23.99 8.19 24.45 8.41C24.91 8.63 25.23 8.81 25.41 8.95L25.68 9.19L25.8 9.28C26.3 9.74 26.55 10.12 26.55 10.42C26.55 10.72 26.31 11.22 25.83 11.92C25.37 12.62 24.86 12.97 24.3 12.97C23.94 12.97 23.63 12.88 23.37 12.7C23.13 12.52 22.94 12.37 22.8 12.25C22.66 12.13 22.53 12.03 22.41 11.95C22.07 11.73 21.64 11.62 21.12 11.62C20.6 11.62 20.17 11.75 19.83 12.01C19.49 12.25 19.32 12.59 19.32 13.03C19.32 13.47 19.52 13.83 19.92 14.11C20.34 14.37 20.85 14.55 21.45 14.65C22.05 14.73 22.71 14.88 23.43 15.1C24.15 15.3 24.81 15.54 25.41 15.82C26.01 16.1 26.51 16.6 26.91 17.32C27.33 18.02 27.54 18.9 27.54 19.96Z" fill="#BEF264"/>
</svg>
